HIERARCHY
ROOT root
{
	OFFSET 0.0000 0.0000 0.0000
	CHANNELS 6 Xposition Yposition Zposition Zrotation Xrotation Yrotation
	JOINT lowerback
	{
		OFFSET 0.0000 0.0000 10.0000
		CHANNELS 3 Zrotation Xrotation Yrotation
	}
}
MOTION
Frames: 82
Frame Time: 0.008333
21.7755 98.1342 14.0981 -2.5800 6.7900 41.9500 -3.6400 -14.3900 -2.1700 
22.3320 98.0257 14.7911 -2.7200 6.7800 42.3400 -3.5800 -14.2600 -2.2600 
22.8977 97.8959 15.5509 -2.8800 6.8600 42.5700 -3.5600 -14.3700 -2.3300 
23.4603 97.7486 16.3203 -2.8600 6.9200 42.7600 -3.7400 -14.3700 -2.4000 
24.0337 97.5792 17.0716 -2.8100 7.1200 42.9000 -3.8300 -14.3800 -2.4300 
24.6078 97.3983 17.8495 -2.7200 7.3300 42.9600 -4.0500 -14.3900 -2.4900 
25.1761 97.2137 18.6352 -2.7100 7.5100 43.0700 -4.1800 -14.4800 -2.5700 
25.7437 97.0143 19.4602 -2.6700 7.5600 43.0500 -4.2400 -14.4800 -2.5500 
26.3017 96.8220 20.2813 -2.5100 7.7300 42.9500 -4.4700 -14.4300 -2.5300 
26.8521 96.6549 21.1109 -2.3000 7.9800 42.9300 -4.9500 -14.3600 -2.6400 
27.4399 96.4771 21.9410 -2.2600 8.0800 42.9600 -4.9500 -14.3500 -2.6600 
28.0284 96.2817 22.7751 -2.4900 8.2100 43.0400 -4.8300 -14.6000 -2.7100 
28.6372 96.0930 23.6215 -2.6300 8.4400 43.1500 -4.8500 -14.8000 -2.8500 
29.2369 95.9421 24.4756 -2.6000 8.6700 43.1600 -4.9600 -14.8700 -2.9100 
29.8277 95.8037 25.3366 -2.5300 8.7700 43.2800 -5.0300 -14.8400 -2.9300 
30.4193 95.6683 26.2034 -2.4200 8.8000 43.3900 -5.0500 -14.7900 -2.9400 
31.0002 95.5518 27.0670 -2.2300 8.8800 43.4900 -5.0600 -14.6200 -2.9400 
31.5890 95.4308 27.9718 -2.1200 9.0000 43.4500 -5.1700 -14.6300 -2.9300 
32.1854 95.3417 28.9250 -1.9900 9.0900 43.4200 -5.3900 -14.6900 -2.9500 
32.8110 95.2886 29.8955 -1.9700 8.9800 43.5500 -5.3300 -14.7200 -3.0000 
33.4726 95.2543 30.8773 -1.9400 8.8700 43.7500 -5.3200 -14.7500 -3.0500 
34.1600 95.2276 31.8686 -2.0200 8.6600 44.0900 -5.0200 -14.7600 -3.1100 
34.8534 95.2470 32.8882 -2.1500 8.4500 44.4800 -4.7100 -14.9700 -3.1100 
35.5585 95.2779 33.9227 -2.2900 8.3200 44.8700 -4.4600 -15.2300 -3.1000 
36.2524 95.3186 34.9786 -2.5000 8.1300 45.1700 -4.9200 -15.2300 -3.9800 
36.9331 95.3516 36.0246 -2.7200 8.0000 45.3000 -4.4200 -15.5500 -3.5400 
37.5425 95.4359 37.0032 -2.9200 7.8700 45.5700 -4.2300 -15.5000 -3.4800 
38.1566 95.5670 37.9816 -3.0400 7.6300 45.6300 -4.0600 -15.3900 -3.5200 
38.7932 95.6887 38.9890 -3.1600 7.4100 45.4700 -3.8900 -15.4800 -3.4800 
39.4081 95.8416 39.8988 -3.2700 7.2000 45.4600 -3.4900 -15.3800 -3.2800 
40.0108 96.0242 40.7927 -3.4500 6.9200 45.3400 -2.7500 -15.3700 -2.7800 
40.5935 96.1893 41.6822 -3.6800 6.7100 45.1900 -2.3000 -15.4300 -2.5500 
41.1635 96.3795 42.5480 -3.8400 6.4800 45.0100 -2.1700 -15.3100 -2.6600 
41.7167 96.5744 43.3908 -4.0400 6.2400 44.9400 -1.8100 -15.1500 -2.5500 
42.2481 96.7730 44.2148 -4.2000 5.9100 44.9000 -1.6900 -14.8700 -2.7200 
42.7599 96.9218 45.0266 -4.2800 5.8300 44.8800 -1.9900 -14.6600 -3.0300 
43.3019 97.0542 45.8569 -4.3100 5.8000 44.9000 -1.8100 -14.8500 -2.8400 
43.8765 97.1695 46.6705 -4.4300 5.6800 44.9500 -1.5500 -14.9400 -2.6300 
44.4340 97.2922 47.4896 -4.5600 5.6300 44.9500 -1.2600 -15.0600 -2.3600 
44.9181 97.4385 48.2933 -4.5500 5.6100 44.9600 -1.2400 -14.9700 -2.1600 
45.4124 97.5876 49.1139 -4.5500 5.5900 44.8900 -1.2700 -14.8900 -2.0200 
45.9626 97.7268 49.9316 -4.4000 5.5000 44.7000 -1.3100 -14.7400 -1.9500 
46.4980 97.8764 50.7312 -4.3100 5.4200 44.5900 -1.3500 -14.6500 -1.8700 
46.9925 98.0148 51.5323 -4.3500 5.4700 44.4300 -1.2700 -14.6900 -1.6100 
47.4977 98.1464 52.3377 -4.3600 5.5800 44.1900 -1.4100 -14.7400 -1.6000 
48.0644 98.2797 53.1467 -4.2600 5.6500 43.7500 -1.3100 -14.8500 -1.3900 
48.6359 98.3953 53.9587 -3.9700 5.7500 43.2200 -1.4200 -14.8300 -1.2300 
49.1774 98.5185 54.7883 -3.7200 5.9100 42.7100 -1.7100 -14.8600 -1.1700 
49.7144 98.6462 55.5762 -3.5900 5.9700 42.3400 -1.8100 -14.8500 -1.0500 
50.2356 98.7326 56.3298 -3.5800 6.0000 42.0500 -1.6300 -14.8100 -0.8200 
50.7660 98.7679 57.0928 -3.6100 6.2000 41.7000 -1.6200 -14.9300 -0.7100 
51.3093 98.7989 57.8698 -3.6100 6.3100 41.2500 -1.6600 -15.0000 -0.6900 
51.8676 98.8393 58.6659 -3.4800 6.2700 40.8400 -1.6600 -15.0100 -0.5800 
52.4032 98.8728 59.4566 -3.3000 6.2800 40.5200 -1.7000 -14.9400 -0.4100 
52.9476 98.8845 60.2338 -3.2400 6.3700 40.3000 -1.7200 -15.0100 -0.2800 
53.4942 98.8885 60.9951 -3.2700 6.4300 40.0200 -1.8000 -15.0500 -0.2600 
54.0167 98.8606 61.7268 -3.2000 6.4900 39.8000 -2.0000 -14.8900 -0.2700 
54.5729 98.8497 62.4835 -2.9800 6.4200 39.4400 -2.0300 -14.7300 -0.0900 
55.1411 98.8347 63.2648 -2.9000 6.3300 39.0700 -1.9700 -14.7400 0.0300 
55.7129 98.7836 64.0118 -2.8900 6.3000 38.7300 -1.9100 -14.7000 0.1400 
56.2620 98.7336 64.7522 -2.8700 6.4200 38.3400 -1.9200 -14.6800 0.3500 
56.8091 98.6879 65.4850 -3.0500 6.4100 38.1400 -1.8400 -14.7000 0.4700 
57.4004 98.6000 66.2772 -3.1400 6.5200 37.7500 -1.9200 -14.9600 0.6100 
58.0070 98.4809 67.1032 -3.1800 6.6200 37.0400 -1.9500 -15.3100 0.8500 
58.6080 98.3869 67.8848 -3.2600 6.6100 36.6300 -1.9600 -15.4600 0.9500 
59.2292 98.3148 68.6095 -3.4600 6.6100 36.5100 -1.8900 -15.5400 0.9600 
59.9013 98.2515 69.3377 -3.5400 6.4700 36.4000 -1.7400 -15.4900 1.0100 
60.5958 98.1626 70.0689 -3.6100 6.3900 36.4000 -1.5500 -15.5800 1.1200 
61.2653 98.0605 70.8378 -3.7200 6.3900 36.3100 -1.3500 -15.7400 1.2700 
61.9216 97.9510 71.6440 -3.9100 6.3800 36.0100 -1.2600 -15.9700 1.4500 
62.5790 97.8449 72.4657 -4.0900 6.3200 35.7400 -1.2100 -16.1800 1.5500 
63.2694 97.7003 73.2714 -4.2500 6.3900 35.4600 -1.1100 -16.4800 1.6700 
63.9648 97.5472 74.0552 -4.5300 6.3900 35.2800 -0.9000 -16.7700 1.7600 
64.6460 97.3879 74.8421 -4.8000 6.2300 35.1800 -0.8100 -16.8900 1.7400 
65.3123 97.2271 75.6727 -4.9300 6.1200 34.8900 -0.8300 -16.8700 1.7900 
65.9808 97.0643 76.4642 -5.0100 6.0800 34.6800 -0.8300 -16.9000 1.8500 
66.6636 96.8832 77.1726 -5.1100 6.1000 34.6800 -0.7400 -16.8100 1.8700 
67.3626 96.7115 77.8792 -5.3300 6.1000 34.8300 -0.5600 -16.7900 1.8500 
68.0936 96.5406 78.5914 -5.3800 6.1500 34.8600 -0.5100 -16.7800 1.8400 
68.8406 96.4019 79.3186 -5.3100 5.9600 34.8300 -0.4600 -16.5900 1.8300 
69.5800 96.2909 80.0755 -5.3300 5.7000 34.7400 -0.3500 -16.4500 1.8500 
70.3120 96.1603 80.8462 -5.2600 5.6300 34.7200 -0.4200 -16.4000 1.8700 
